#!OML:ASF H:\BreakDance\Project 1\Capture day 1\Session 1\Male.ASF
:FULLY-SPECIFIED
:DEGREES
219
root 17.3467 15.9968 0.369352 -195.086 -86.823 198.859
lowerback -8.82571 0.0607818 1.20194
upperback 2.07322 -0.0372208 -0.290833
thorax 7.13882 0.040122 -0.987796
lowerneck -4.33747 0.584036 -2.93974
upperneck 13.0837 0.688844 1.62009
head 4.61376 0.223347 1.01279
rclavicle -7.19352e-015 7.95139e-016
rhumerus -29.2713 2.94715 -85.8031
rradius 42.9902
rwrist 5.08657
rhand -32.9708 -38.6972
rfingers 7.12502
rthumb -6.18603 -68.5869
lclavicle -7.19352e-015 7.95139e-016
lhumerus -27.9872 0.557742 80.3679
lradius 43.5629
lwrist -12.3502
lhand -40.3256 -39.4151
lfingers 7.12502
lthumb -13.2816 -9.85831
rfemur -20.1039 8.69637 11.5373
rtibia 42.5143
rfoot -29.6107 -21.3148
rtoes -4.53585
lfemur -17.8456 -0.409266 -8.28217
ltibia 40.9155
lfoot -33.1939 21.6984
ltoes -28.9992
220
root 17.3501 15.997 0.368128 -195.78 -86.9136 199.557
lowerback -8.70174 0.0414668 1.17952
upperback 2.05915 -0.0575849 -0.310105
thorax 7.05205 0.0289491 -0.998056
lowerneck -4.36815 0.604714 -2.88033
upperneck 12.984 0.724218 1.55931
head 4.58814 0.242308 0.985856
rclavicle -3.72721e-017 -9.14409e-015
rhumerus -29.2801 2.9309 -85.8512
rradius 42.9762
rwrist 5.1089
rhand -33.0472 -38.8962
rfingers 7.12502
rthumb -6.25975 -68.7838
lclavicle -3.72721e-017 -9.14409e-015
lhumerus -27.95 0.520451 80.3741
lradius 43.5572
lwrist -12.3104
lhand -40.3774 -39.4277
lfingers 7.12502
lthumb -13.3316 -9.87412
rfemur -20.1081 8.57153 11.5576
rtibia 42.5478
rfoot -29.6252 -21.2792
rtoes -4.48218
lfemur -17.9175 -0.0223745 -8.22766
ltibia 40.9356
lfoot -32.9595 21.3364
ltoes -29.2149
221
root 17.3539 15.9973 0.367101 -196.946 -87.0218 200.735
lowerback -8.59126 0.0152859 1.16135
upperback 2.05056 -0.0884553 -0.320912
thorax 6.97862 0.0127303 -1.0033
lowerneck -4.37266 0.62684 -2.87279
upperneck 12.8286 0.76146 1.54044
head 4.54066 0.262877 0.980095
rclavicle -3.23025e-016 4.96962e-015
rhumerus -29.2665 2.91582 -85.903
rradius 42.9381
rwrist 5.11738
rhand -33.1097 -39.0603
rfingers 7.12502
rthumb -6.32016 -68.946
lclavicle -3.23025e-016 4.96962e-015
lhumerus -27.9069 0.455466 80.3978
lradius 43.5468
lwrist -12.2147
lhand -40.4805 -39.4912
lfingers 7.12502
lthumb -13.4309 -9.94415
rfemur -20.1194 8.40107 11.5926
rtibia 42.5808
rfoot -29.6121 -21.2443
rtoes -4.55483
lfemur -18.0219 0.439948 -8.15035
ltibia 40.9734
lfoot -32.6713 20.912
ltoes -29.4954
222
root 17.3582 15.9977 0.366355 -198.766 -87.1431 202.578
lowerback -8.49314 -0.0155386 1.15225
upperback 2.04197 -0.127332 -0.322801
thorax 6.91213 -0.00719009 -1.00537
lowerneck -4.39118 0.653101 -2.90333
upperneck 12.282 0.818008 1.48389
head 4.86566 0.282699 1.06803
rclavicle 1.81391e-015 7.95139e-015
rhumerus -29.2383 2.88909 -85.9559
rradius 42.8747
rwrist 5.10667
rhand -33.1309 -39.1886
rfingers 7.12502
rthumb -6.3406 -69.0737
lclavicle 1.81391e-015 7.95139e-015
lhumerus -27.8646 0.346761 80.4377
lradius 43.5277
lwrist -12.0492
lhand -40.6489 -39.5941
lfingers 7.12502
lthumb -13.5933 -10.0579
rfemur -20.14 8.18527 11.6484
rtibia 42.6121
rfoot -29.5629 -21.2152
rtoes -4.75211
lfemur -18.1635 0.955851 -8.04538
ltibia 41.0335
lfoot -32.3496 20.4319
ltoes -29.8037
223
root 17.3629 15.998 0.365869 -201.267 -87.2669 205.112
lowerback -8.40662 -0.0462655 1.15155
upperback 2.03209 -0.167608 -0.31767
thorax 6.85093 -0.0275806 -1.00493
lowerneck -4.36826 0.682373 -2.96487
upperneck 12.0839 0.86367 1.526
head 4.78635 0.308392 1.09391
rclavicle -3.98812e-015 -2.78299e-015
rhumerus -29.2052 2.83681 -86.0061
rradius 42.7877
rwrist 5.08467
rhand -33.1011 -39.2864
rfingers 7.12502
rthumb -6.3118 -69.1724
lclavicle -3.98812e-015 -2.78299e-015
lhumerus -27.8186 0.181139 80.4915
lradius 43.4884
lwrist -11.8143
lhand -40.8764 -39.7068
lfingers 7.12502
lthumb -13.8125 -10.1853
rfemur -20.1709 7.9337 11.724
rtibia 42.6429
rfoot -29.4825 -21.185
rtoes -4.99576
lfemur -18.3381 1.5104 -7.91513
ltibia 41.1185
lfoot -32.024 19.8941
ltoes -30.1077
